<svg id="visual" viewBox="0 0 900 600" width="900" height="600" xmlns="http://www.w3.org/2000/svg" xmlns:xlink="http://www.w3.org/1999/xlink" version="1.1"><rect x="0" y="0" width="900" height="600" fill="#F7CACA"></rect><path d="M0 385L21.5 380.2C43 375.3 86 365.7 128.8 370.8C171.7 376 214.3 396 257.2 408.5C300 421 343 426 385.8 422.7C428.7 419.3 471.3 407.7 514.2 399C557 390.3 600 384.7 642.8 379.7C685.7 374.7 728.3 370.3 771.2 370C814 369.7 857 373.3 878.5 375.2L900 377L900 601L878.5 601C857 601 814 601 771.2 601C728.3 601 685.7 601 642.8 601C600 601 557 601 514.2 601C471.3 601 428.7 601 385.8 601C343 601 300 601 257.2 601C214.3 601 171.7 601 128.8 601C86 601 43 601 21.5 601L0 601Z" fill="#fa7268"></path><path d="M0 398L21.5 408.5C43 419 86 440 128.8 443.2C171.7 446.3 214.3 431.7 257.2 427.2C300 422.7 343 428.3 385.8 435.2C428.7 442 471.3 450 514.2 451.8C557 453.7 600 449.3 642.8 447.8C685.7 446.3 728.3 447.7 771.2 450C814 452.3 857 455.7 878.5 457.3L900 459L900 601L878.5 601C857 601 814 601 771.2 601C728.3 601 685.7 601 642.8 601C600 601 557 601 514.2 601C471.3 601 428.7 601 385.8 601C343 601 300 601 257.2 601C214.3 601 171.7 601 128.8 601C86 601 43 601 21.5 601L0 601Z" fill="#ef5f67"></path><path d="M0 476L21.5 478C43 480 86 484 128.8 489.7C171.7 495.3 214.3 502.7 257.2 505C300 507.3 343 504.7 385.8 501.2C428.7 497.7 471.3 493.3 514.2 491.3C557 489.3 600 489.7 642.8 490.7C685.7 491.7 728.3 493.3 771.2 488.2C814 483 857 471 878.5 465L900 459L900 601L878.5 601C857 601 814 601 771.2 601C728.3 601 685.7 601 642.8 601C600 601 557 601 514.2 601C471.3 601 428.7 601 385.8 601C343 601 300 601 257.2 601C214.3 601 171.7 601 128.8 601C86 601 43 601 21.5 601L0 601Z" fill="#e34c67"></path><path d="M0 499L21.5 502C43 505 86 511 128.8 509.3C171.7 507.7 214.3 498.3 257.2 492.7C300 487 343 485 385.8 484.8C428.7 484.7 471.3 486.3 514.2 492.3C557 498.3 600 508.7 642.8 513.5C685.7 518.3 728.3 517.7 771.2 514C814 510.3 857 503.7 878.5 500.3L900 497L900 601L878.5 601C857 601 814 601 771.2 601C728.3 601 685.7 601 642.8 601C600 601 557 601 514.2 601C471.3 601 428.7 601 385.8 601C343 601 300 601 257.2 601C214.3 601 171.7 601 128.8 601C86 601 43 601 21.5 601L0 601Z" fill="#d53867"></path><path d="M0 568L21.5 568.3C43 568.7 86 569.3 128.8 562.8C171.7 556.3 214.3 542.7 257.2 539.3C300 536 343 543 385.8 545.5C428.7 548 471.3 546 514.2 549.8C557 553.7 600 563.3 642.8 565.2C685.7 567 728.3 561 771.2 560C814 559 857 563 878.5 565L900 567L900 601L878.5 601C857 601 814 601 771.2 601C728.3 601 685.7 601 642.8 601C600 601 557 601 514.2 601C471.3 601 428.7 601 385.8 601C343 601 300 601 257.2 601C214.3 601 171.7 601 128.8 601C86 601 43 601 21.5 601L0 601Z" fill="#c62368"></path></svg>